<?xml version="1.0" encoding="UTF-8" standalone="no"?>
<!-- Created with Inkscape (http://www.inkscape.org/) -->

<svg
   id="svg33556"
   inkscape:export-ydpi="300"
   inkscape:export-filename="/home/bersace/Pictures/Scoutisme/Quattres Bosses.png"
   viewBox="0 0 256.00001 256"
   sodipodi:version="0.32"
   inkscape:export-xdpi="300"
   version="1.0"
   inkscape:version="1.2.1 (9c6d41e410, 2022-07-14, custom)"
   sodipodi:docname="telly-skout.svg"
   width="256"
   height="256"
   xmlns:inkscape="http://www.inkscape.org/namespaces/inkscape"
   xmlns:sodipodi="http://sodipodi.sourceforge.net/DTD/sodipodi-0.dtd"
   xmlns="http://www.w3.org/2000/svg"
   xmlns:svg="http://www.w3.org/2000/svg"
   xmlns:rdf="http://www.w3.org/1999/02/22-rdf-syntax-ns#"
   xmlns:cc="http://creativecommons.org/ns#"
   xmlns:dc="http://purl.org/dc/elements/1.1/">
  <defs
     id="defs24">
    <inkscape:path-effect
       effect="skeletal"
       id="path-effect4505-3"
       is_visible="true"
       pattern="m 416.54244,475.31374 c -0.9387,0.59096 -0.49767,2.58528 -2.77633,1.72862 l -0.005,-0.01 c 0.80458,-0.66311 0.34656,-2.64696 2.75575,-1.72124 z"
       copytype="repeated"
       prop_scale="1"
       scale_y_rel="false"
       spacing="-0.9"
       normal_offset="0"
       tang_offset="0"
       prop_units="false"
       vertical_pattern="false"
       fuse_tolerance="0"
       lpeversion="0"
       hide_knot="false" />
  </defs>
  <sodipodi:namedview
     id="base"
     bordercolor="#666666"
     inkscape:pageshadow="2"
     guidetolerance="10.0"
     pagecolor="#ffffff"
     gridtolerance="10.0"
     inkscape:window-maximized="1"
     inkscape:window-width="1920"
     inkscape:zoom="1.4142135"
     objecttolerance="10.0"
     showgrid="false"
     borderopacity="1.0"
     inkscape:current-layer="g4278"
     inkscape:cx="39.951535"
     inkscape:cy="158.74548"
     inkscape:window-y="0"
     inkscape:window-x="0"
     inkscape:window-height="1006"
     showborder="false"
     inkscape:pageopacity="0.0"
     inkscape:snap-bbox="true"
     inkscape:snap-bbox-midpoints="true"
     fit-margin-top="0"
     fit-margin-left="0"
     fit-margin-right="0"
     fit-margin-bottom="0"
     inkscape:pagecheckerboard="0"
     inkscape:showpageshadow="2"
     inkscape:deskcolor="#d1d1d1"
     showguides="true" />
  <sodipodi:namedview
     id="namedview4"
     bordercolor="#666666"
     inkscape:pageshadow="2"
     inkscape:window-y="25"
     pagecolor="#ffffff"
     inkscape:window-width="1270"
     inkscape:zoom="0.49497475"
     inkscape:window-x="0"
     borderopacity="1.0"
     inkscape:current-layer="layer1"
     inkscape:cx="624.55133"
     inkscape:cy="242.95622"
     inkscape:window-height="945"
     inkscape:pageopacity="0.0"
     inkscape:document-units="px" />
  <g
     id="layer1"
     inkscape:label="Calque 1"
     inkscape:groupmode="layer"
     transform="translate(-257.52173,-275.47685)">
    <g
       id="g4278"
       transform="matrix(0.67327812,0,0,0.67327812,137.16528,130.401)">
      <path
         d="m 419.41727,308.13003 c 19.24616,15.84034 26.51038,32.57951 26.86014,32.07463 5.90813,-2.07866 23.61595,0.9142 36.19014,2.89788 25.40513,4.00784 59.33808,26.68238 58.96071,57.06765 -3.39225,21.8837 -19.0625,39.89079 -35.50051,53.77588 -49.42315,38.25944 -111.78634,57.07142 -173.10423,64.04811 -31.09842,3.53837 -63.00335,1.41671 -93.26898,-6.39021 -34.75498,-9.23164 -41.09332,-13.85584 -49.03964,-33.88535 -10.25763,-24.43185 5.85499,-49.35344 24.34773,-64.95487 13.28284,-11.58407 28.98513,-21.99075 46.48635,-31.28328 1.07255,-11.7917 -2.54014,-30.77069 14.08295,-53.54831 16.74986,-22.61515 29.45973,-43.17593 55.31144,-56.1627 6.52095,-2.1985 15.77825,-3.65889 23.3963,-2.52221 22.46157,11.80858 47.08837,23.49204 65.2776,38.88278 z"
         style="fill:#664c29;fill-opacity:1;fill-rule:evenodd;stroke-width:1.89273"
         sodipodi:nodetypes="ccsccscccccccc"
         inkscape:connector-curvature="0"
         id="path1330" />
      <path
         d="m 260.75447,401.97781 c -6.44552,9.01378 1.53858,21.97974 0.9617,32.02455 1.87969,11.73407 16.89467,19.16831 38.57413,23.76348 22.54629,4.78166 87.90779,-10.26024 101.55015,-14.83056 13.64369,-4.56467 38.16103,-18.50686 47.44979,-28.77168 8.83592,-9.75784 9.41555,-10.87495 14.09805,-19.69177 0.65827,-7.6743 -2.36211,-24.53572 -8.91875,-31.40856 -2.1275,11.7878 -1.649,8.16243 -4.38633,13.26052 -2.15383,10.6911 -10.66888,18.15214 -19.02289,24.32528 -29.03786,21.78517 -64.61363,34.58265 -100.88531,36.25783 -19.40014,0.86973 -40.36574,0.21335 -57.24919,-10.53315 -8.41699,-5.42044 -9.80258,-15.10399 -12.17135,-24.39594 z"
         style="fill:#4e2a0f;fill-opacity:1;fill-rule:evenodd;stroke-width:1.89273"
         sodipodi:nodetypes="cczzzccccccc"
         inkscape:connector-curvature="0"
         id="path1338" />
      <path
         d="M 471.18772,341.19938 C 665.84869,392.12787 390.84835,568.44985 209.09287,501.34017 408.07488,584.54223 691.89273,371.48006 471.18772,341.19938 Z m -17.33881,18.17647 c 7.46767,-0.31997 16.33485,-1.74947 30.32335,0.66762 11.58093,10.73574 50.85214,23.6087 52.50086,35.11122 2.0174,14.09169 -58.10503,33.05395 -105.40987,55.24732 -55.55418,12.29787 -126.17554,14.81986 -151.66438,1.01543 -1.20696,-0.65369 41.83093,-30.7167 42.5733,-76.96931 0.79386,-49.25833 18.63118,-81.51672 19.79324,-99.29614 31.43555,-2.49545 97.66755,32.59302 111.8835,84.22386 z m -127.9507,-72.75376 c -14.76755,2.92182 -49.33806,39.09543 -57.11455,68.2792 12.84077,17.1578 21.84091,-42.61324 43.30722,-34.06289 5.53946,2.20628 7.82648,-21.96248 13.80733,-34.21631 z"
         style="opacity:0.25;fill:#000000;fill-rule:evenodd;stroke-width:1.89273"
         sodipodi:nodetypes="cccccscsscccssc"
         inkscape:connector-curvature="0"
         id="path1328" />
      <path
         d="m 343.87686,363.29249 c -0.50417,-30.46952 -0.0905,-66.89109 9.3699,-73.15201 6.74313,-4.46022 48.12202,18.73488 67.8718,38.56437 8.8639,-2.91679 -52.95149,-51.0282 -69.0854,-42.58829 -14.46156,7.56361 -13.92268,72.31062 -8.85928,76.39577 z"
         style="opacity:0.25;fill:#000000;fill-rule:evenodd;stroke:#000000;stroke-width:0.149568px"
         sodipodi:nodetypes="cscscc"
         inkscape:connector-curvature="0"
         id="path1350" />
      <path
         d="m 326.01316,290.81859 c 6.06027,-16.58504 -6.74586,52.77403 -12.70395,76.36865 -0.63692,6.57854 -8.49466,11.45215 -12.87658,6.20282 -4.59988,-5.5017 7.01024,-5.62181 9.39434,-12.87982 5.56527,-16.93393 12.00954,-64.5361 16.18619,-69.69165 z m 8.0539,-18.74862 c -16.27683,6.73149 -51.62976,41.53606 -67.33368,75.57387 -4.32797,11.99025 -3.87601,39.95808 -4.29761,47.13936 -0.57901,10.00972 1.61128,15.00891 0.18963,17.83095 -3.13872,3.32267 -3.49517,6.00707 -2.69056,8.09311 0.80591,2.09165 -4.11922,-9.45364 -1.16559,-15.00447 2.94669,-5.55514 2.73238,-2.25123 2.73238,-2.25123 0,0 -0.74795,-41.92084 0.33367,-46.71614 7.25142,-32.14438 57.99291,-88.40643 72.23176,-84.66545 z m -72.71519,109.30852 c -98.0986,52.95349 -72.643,92.71587 -66.4466,107.21833 -22.30775,-55.82748 30.70574,-85.5969 66.4466,-107.21833 z"
         style="opacity:0.25;fill:#ffffff;fill-rule:evenodd;stroke-width:1.89273"
         sodipodi:nodetypes="ccsscccscsscscccc"
         inkscape:connector-curvature="0"
         id="path8988" />
      <path
         d="m 319.36618,294.32832 c -10.04917,-1.39697 -42.86745,41.63944 -49.77105,61.37094 8.78102,-12.83988 41.0082,-54.21472 49.77105,-61.37094 z m 29.9662,-9.67569 c -2.95027,0.9655 -13.29779,31.06223 -12.45145,58.68167 1.32839,43.21053 24.82033,12.67847 40.42556,-3.28617 6.57334,-6.72508 38.80414,0.29311 44.24392,-7.67775 10.7641,-15.77296 -53.61874,-54.86941 -72.21752,-47.71552 z m -87.08774,125.42314 c 21.80417,54.54983 184.57432,18.3828 191.98579,-47.71887 7.08182,63.32814 -183.62341,109.13475 -191.98579,47.71887 z"
         style="opacity:0.25;fill:#000000;fill-rule:evenodd;stroke-width:1.89273"
         sodipodi:nodetypes="ccccssscccc"
         inkscape:connector-curvature="0"
         id="path1348" />
    </g>
  </g>
  <metadata
     id="metadata24">
    <rdf:RDF>
      <cc:Work>
        <dc:format>image/svg+xml</dc:format>
        <dc:type
           rdf:resource="http://purl.org/dc/dcmitype/StillImage" />
        <cc:license
           rdf:resource="http://creativecommons.org/publicdomain/zero/1.0/" />
        <dc:publisher>
          <cc:Agent
             rdf:about="http://openclipart.org/">
            <dc:title>Openclipart</dc:title>
          </cc:Agent>
        </dc:publisher>
      </cc:Work>
      <cc:License
         rdf:about="http://creativecommons.org/publicdomain/zero/1.0/">
        <cc:permits
           rdf:resource="http://creativecommons.org/ns#Reproduction" />
        <cc:permits
           rdf:resource="http://creativecommons.org/ns#Distribution" />
        <cc:permits
           rdf:resource="http://creativecommons.org/ns#DerivativeWorks" />
      </cc:License>
    </rdf:RDF>
  </metadata>
</svg>
