<?xml version="1.0" encoding="UTF-8" standalone="no"?>
<!-- Created with Inkscape (http://www.inkscape.org/) -->

<svg
   id="svg33556"
   inkscape:export-ydpi="300"
   inkscape:export-filename="/home/bersace/Pictures/Scoutisme/Quattres Bosses.png"
   viewBox="0 0 133.97614 99.187035"
   sodipodi:version="0.32"
   inkscape:export-xdpi="300"
   version="1.0"
   inkscape:version="1.1 (c4e8f9ed74, 2021-05-24)"
   sodipodi:docname="1439448679.svg"
   width="133.97614"
   height="99.187035"
   xmlns:inkscape="http://www.inkscape.org/namespaces/inkscape"
   xmlns:sodipodi="http://sodipodi.sourceforge.net/DTD/sodipodi-0.dtd"
   xmlns="http://www.w3.org/2000/svg"
   xmlns:svg="http://www.w3.org/2000/svg"
   xmlns:rdf="http://www.w3.org/1999/02/22-rdf-syntax-ns#"
   xmlns:cc="http://creativecommons.org/ns#"
   xmlns:dc="http://purl.org/dc/elements/1.1/">
  <defs
     id="defs24">
    <inkscape:path-effect
       effect="skeletal"
       id="path-effect4505-3"
       is_visible="true"
       pattern="m 416.54244,475.31374 c -0.9387,0.59096 -0.49767,2.58528 -2.77633,1.72862 l -0.005,-0.01 c 0.80458,-0.66311 0.34656,-2.64696 2.75575,-1.72124 z"
       copytype="repeated"
       prop_scale="1"
       scale_y_rel="false"
       spacing="-0.9"
       normal_offset="0"
       tang_offset="0"
       prop_units="false"
       vertical_pattern="false"
       fuse_tolerance="0" />
  </defs>
  <sodipodi:namedview
     id="base"
     bordercolor="#666666"
     inkscape:pageshadow="2"
     guidetolerance="10.0"
     pagecolor="#ffffff"
     gridtolerance="10.0"
     inkscape:window-maximized="1"
     inkscape:window-width="2502"
     inkscape:zoom="5.656854"
     objecttolerance="10.0"
     showgrid="false"
     borderopacity="1.0"
     inkscape:current-layer="g4278"
     inkscape:cx="121.26882"
     inkscape:cy="72.036506"
     inkscape:window-y="0"
     inkscape:window-x="0"
     inkscape:window-height="1403"
     showborder="false"
     inkscape:pageopacity="0.0"
     inkscape:snap-bbox="true"
     inkscape:snap-bbox-midpoints="true"
     fit-margin-top="0"
     fit-margin-left="0"
     fit-margin-right="0"
     fit-margin-bottom="0"
     inkscape:pagecheckerboard="0" />
  <sodipodi:namedview
     id="namedview4"
     bordercolor="#666666"
     inkscape:pageshadow="2"
     inkscape:window-y="25"
     pagecolor="#ffffff"
     inkscape:window-width="1270"
     inkscape:zoom="0.49497475"
     inkscape:window-x="0"
     borderopacity="1.0"
     inkscape:current-layer="layer1"
     inkscape:cx="624.55133"
     inkscape:cy="242.95622"
     inkscape:window-height="945"
     inkscape:pageopacity="0.0"
     inkscape:document-units="px" />
  <g
     id="layer1"
     inkscape:label="Calque 1"
     inkscape:groupmode="layer"
     transform="translate(-257.52173,-275.47685)">
    <g
       id="g4278"
       transform="matrix(0.67327812,0,0,0.67327812,137.16528,130.401)">
      <path
         d="m 310.3289,236.79127 c 10.16847,8.36905 14.00643,17.21298 14.19122,16.94623 3.12149,-1.09823 12.47719,0.48301 19.12061,1.53106 13.42248,2.11749 31.35053,14.0973 31.15115,30.15098 -1.79225,11.56198 -10.07143,21.0758 -18.75625,28.41181 -26.1121,20.2139 -59.06091,30.15297 -91.45745,33.83902 -16.43046,1.86945 -33.28703,0.7485 -49.2775,-3.37619 -18.36236,-4.87742 -21.71114,-7.32056 -25.90948,-17.9029 -5.41949,-12.90826 3.09341,-26.07527 12.86382,-34.31809 7.01782,-6.1203 15.31393,-11.61854 24.56048,-16.52813 0.56667,-6.23 -1.34205,-16.25731 7.44055,-28.29158 8.84958,-11.94843 15.56468,-22.81146 29.22311,-29.67286 3.44526,-1.16155 8.33624,-1.93313 12.36114,-1.33258 11.86729,6.23892 24.87855,12.41173 34.4886,20.54323 z"
         style="fill:#664c29;fill-opacity:1;fill-rule:evenodd"
         sodipodi:nodetypes="ccsccscccccccc"
         inkscape:connector-curvature="0"
         id="path1330" />
      <path
         d="m 226.5014,286.37457 c -3.40541,4.76232 0.81289,11.61272 0.5081,16.91977 0.99311,6.19955 8.92609,10.12734 20.38016,12.55514 11.91205,2.52633 46.44498,-5.42087 53.65275,-7.83554 7.20847,-2.41169 20.1619,-9.77787 25.0695,-15.20116 4.66835,-5.15543 4.97459,-5.74564 7.44853,-10.4039 0.34779,-4.05462 -1.24799,-12.96314 -4.71211,-16.59432 -1.12404,6.22794 -0.87123,4.31252 -2.31746,7.00603 -1.13795,5.64851 -5.63677,9.59046 -10.05051,12.85196 -15.34179,11.50992 -34.1378,18.27131 -53.30149,19.15637 -10.24982,0.45951 -21.32673,0.11272 -30.24689,-5.56506 -4.44701,-2.86382 -5.17907,-7.98 -6.43058,-12.88929 z"
         style="fill:#4e2a0f;fill-opacity:1;fill-rule:evenodd"
         sodipodi:nodetypes="cczzzccccccc"
         inkscape:connector-curvature="0"
         id="path1338" />
      <path
         d="m 337.68117,254.26305 c 102.84669,26.90743 -42.4463,120.06494 -138.47453,84.60838 105.12965,43.95877 255.08126,-68.60996 138.47453,-84.60838 z m -9.16074,9.60331 c 3.94545,-0.16905 8.63031,-0.92431 16.02096,0.35273 6.11864,5.67209 26.86709,12.47336 27.73817,18.55057 1.06587,7.44517 -30.69906,17.46364 -55.69198,29.18923 -29.35136,6.49743 -66.66327,7.82989 -80.12998,0.53649 -0.63768,-0.34537 22.10085,-16.22878 22.49307,-40.66577 0.41943,-26.02502 9.84355,-43.06834 10.45751,-52.46187 16.60858,-1.31844 51.60143,17.22011 59.11225,44.49862 z m -67.60115,-38.43854 c -7.80225,1.54371 -26.06715,20.65558 -30.17576,36.07446 6.78426,9.06511 11.53937,-22.51417 22.88083,-17.9967 2.9267,1.16566 4.13502,-11.6036 7.29493,-18.07776 z"
         style="opacity:0.25;fill:#000000;fill-rule:evenodd"
         sodipodi:nodetypes="cccccscsscccssc"
         inkscape:connector-curvature="0"
         id="path1328" />
      <path
         d="m 270.41807,265.93567 c -0.26637,-16.09819 -0.0478,-35.34107 4.95047,-38.64895 3.56265,-2.3565 25.42467,9.89834 35.85922,20.375 4.68313,-1.54105 -27.97626,-26.96011 -36.50041,-22.50099 -7.64058,3.99614 -7.35587,38.20441 -4.68069,40.36275 z"
         style="opacity:0.25;fill:#000000;fill-rule:evenodd;stroke:#000000;stroke-width:0.0790225px"
         sodipodi:nodetypes="cscscc"
         inkscape:connector-curvature="0"
         id="path1350" />
      <path
         d="m 260.98001,227.64499 c 3.20187,-8.7625 -3.56409,27.8825 -6.71197,40.34842 -0.33651,3.47569 -4.48805,6.0506 -6.80318,3.27718 -2.43029,-2.90675 3.70377,-2.97021 4.96338,-6.80489 2.94034,-8.94683 6.34509,-34.09684 8.55177,-36.82071 z m 4.25518,-9.9056 c -8.59966,3.5565 -27.27794,21.94506 -35.57491,39.92851 -2.28663,6.3349 -2.04784,21.11135 -2.27059,24.90549 -0.30591,5.28851 0.8513,7.92977 0.10019,9.42076 -1.6583,1.75549 -1.84663,3.17376 -1.42152,4.27589 0.42579,1.1051 -2.17634,-4.99471 -0.61583,-7.92742 1.55685,-2.93499 1.44362,-1.18941 1.44362,-1.18941 0,0 -0.39517,-22.14835 0.17629,-24.68189 3.8312,-16.98308 30.63983,-46.70843 38.16275,-44.73193 z m -38.41816,57.75179 c -51.82917,27.97731 -38.38002,48.98527 -35.10623,56.64746 -11.78602,-29.49575 16.22299,-45.22405 35.10623,-56.64746 z"
         style="opacity:0.25;fill:#ffffff;fill-rule:evenodd"
         sodipodi:nodetypes="ccsscccscsscscccc"
         inkscape:connector-curvature="0"
         id="path8988" />
      <path
         d="m 257.46816,229.49931 c -5.30935,-0.73807 -22.64848,21.99968 -26.29591,32.42457 4.63934,-6.78379 21.66617,-28.64367 26.29591,-32.42457 z m 15.83227,-5.11203 c -1.55874,0.51011 -7.02572,16.41134 -6.57857,31.00373 0.70184,22.82974 13.11351,6.69851 21.35834,-1.73621 3.47294,-3.55311 20.50168,0.15486 23.37572,-4.05644 5.68708,-8.33345 -28.32879,-28.98957 -38.15522,-25.2099 z m -46.01172,66.26575 c 11.51996,28.82072 97.51753,9.71232 101.43329,-25.21167 3.74159,33.45863 -97.01513,57.65998 -101.43329,25.21167 z"
         style="opacity:0.25;fill:#000000;fill-rule:evenodd"
         sodipodi:nodetypes="ccccssscccc"
         inkscape:connector-curvature="0"
         id="path1348" />
    </g>
  </g>
  <metadata
     id="metadata24">
    <rdf:RDF>
      <cc:Work>
        <dc:format>image/svg+xml</dc:format>
        <dc:type
           rdf:resource="http://purl.org/dc/dcmitype/StillImage" />
        <cc:license
           rdf:resource="http://creativecommons.org/publicdomain/zero/1.0/" />
        <dc:publisher>
          <cc:Agent
             rdf:about="http://openclipart.org/">
            <dc:title>Openclipart</dc:title>
          </cc:Agent>
        </dc:publisher>
        <dc:title />
      </cc:Work>
      <cc:License
         rdf:about="http://creativecommons.org/publicdomain/zero/1.0/">
        <cc:permits
           rdf:resource="http://creativecommons.org/ns#Reproduction" />
        <cc:permits
           rdf:resource="http://creativecommons.org/ns#Distribution" />
        <cc:permits
           rdf:resource="http://creativecommons.org/ns#DerivativeWorks" />
      </cc:License>
    </rdf:RDF>
  </metadata>
</svg>
